<?xml version="1.0" standalone="no"?>
<svg viewBox="0 0 200 200" xmlns="http://www.w3.org/2000/svg">
  <path fill="#00BFA6" d="M34.1,-67.1C41,-55,41.4,-39.5,46.8,-27.8C52.2,-16.1,62.8,-8,64,0.7C65.2,9.4,57.1,18.8,51.1,29.6C45,40.3,41.1,52.3,32.9,52.9C24.8,53.4,12.4,42.5,-0.4,43.2C-13.2,43.9,-26.4,56.3,-35.7,56.4C-44.9,56.5,-50.2,44.3,-53,32.8C-55.7,21.4,-55.8,10.7,-48.5,4.2C-41.1,-2.2,-26.4,-4.5,-24.4,-17.1C-22.3,-29.7,-33,-52.7,-31.1,-67.6C-29.1,-82.6,-14.6,-89.5,-0.5,-88.7C13.6,-87.8,27.1,-79.1,34.1,-67.1Z" transform="translate(100 100)" />
</svg>
