<?xml version="1.0" standalone="no"?>
<svg viewBox="0 0 200 200" xmlns="http://www.w3.org/2000/svg">
  <path fill="#00BFA6" d="M30.4,-52.5C39.9,-47.2,48.4,-40,46,-31C43.6,-21.9,30.3,-10.9,35.2,2.9C40.2,16.7,63.4,33.3,65.5,41.9C67.6,50.4,48.6,50.9,34.2,45.3C19.8,39.7,9.9,28,-1.3,30.3C-12.5,32.6,-25.1,48.8,-35.4,52.1C-45.7,55.3,-53.8,45.5,-61,34.7C-68.2,23.8,-74.6,11.9,-75.3,-0.4C-76.1,-12.8,-71.2,-25.5,-59.2,-28C-47.1,-30.6,-27.9,-22.8,-16.9,-27.1C-5.8,-31.4,-2.9,-47.8,3.8,-54.4C10.5,-60.9,21,-57.7,30.4,-52.5Z" transform="translate(100 100)" />
</svg>
